PathFileType	4	(X/Y/Z)	S15T1V11.trc
DataRate	CameraRate	NumFrames	NumMarkers	Units	OrigDataRate	OrigDataStartFrame	OrigNumFrames
200	200	4	39	mm	200	75	99
Frame#	Time	LSHO			RSHO			LICST			RICST			LASIS			RASIS			LTROC			RTROC			SACR			LTH1			LTH2			LTH3			LTH4			RTH1			RTH2			RTH3			RTH4			LLEP			RLEP			LSK1			LSK2			LSK3			LSK4			RSK1			RSK2			RSK3			RSK4			LLME			RLME			LTOE			LHM5			LHEEL			RTOE			RHM5			RHEEL			RFT1			RFT2			LFT1			LFT2		
		X1	Y1	Z1	X2	Y2	Z2	X3	Y3	Z3	X4	Y4	Z4	X5	Y5	Z5	X6	Y6	Z6	X7	Y7	Z7	X8	Y8	Z8	X9	Y9	Z9	X10	Y10	Z10	X11	Y11	Z11	X12	Y12	Z12	X13	Y13	Z13	X14	Y14	Z14	X15	Y15	Z15	X16	Y16	Z16	X17	Y17	Z17	X18	Y18	Z18	X19	Y19	Z19	X20	Y20	Z20	X21	Y21	Z21	X22	Y22	Z22	X23	Y23	Z23	X24	Y24	Z24	X25	Y25	Z25	X26	Y26	Z26	X27	Y27	Z27	X28	Y28	Z28	X29	Y29	Z29	X30	Y30	Z30	X31	Y31	Z31	X32	Y32	Z32	X33	Y33	Z33	X34	Y34	Z34	X35	Y35	Z35	X36	Y36	Z36	X37	Y37	Z37	X38	Y38	Z38	X39	Y39	Z39

75	0.370000	802.943105	1407.495774	-407.773721	916.743942	1424.270918	-104.975436	890.013247	1025.462151	-413.064591	909.833581	1004.773703	-98.897738	942.132608	978.449509	-396.844225	952.385937	946.968955	-120.067103	816.230979	931.354709	-411.277037	823.848888	902.173178	-104.997688	789.169551	1014.185175	-258.583347	1029.185311	733.899028	-408.371259	956.792801	692.201474	-401.918246	1076.485386	644.900591	-394.729430	1010.878215	605.460289	-386.278635	856.468949	683.683602	-99.695458	778.954329	704.110157	-103.155915	833.073627	588.545062	-116.084390	754.889379	607.217674	-119.064434	1076.214776	521.767131	-388.055703	740.607558	482.762131	-124.446663	1087.104892	414.155591	-386.925531	1006.194926	429.607519	-381.543545	1065.381578	316.419774	-372.894680	988.159805	334.447679	-362.086724	712.371142	373.902524	-140.480099	652.006593	421.626051	-115.010852	653.491821	294.141762	-154.672541	585.007024	343.183592	-132.925525	1013.831265	153.518610	-342.894711	493.437682	184.739783	-167.387510	1183.861399	120.748733	-309.479591	1129.230500	99.572901	-364.356307	950.690133	128.458879	-279.993486	606.521005	60.351917	-215.086304	546.928319	67.700362	-154.482240	443.332750	210.951733	-224.808073	439.676963	182.617006	-259.203564	424.829112	186.333221	-202.846792	963.871572	105.834940	-251.830379	952.431745	99.331604	-304.593665
76	0.375000	818.378972	1409.575420	-407.986804	932.468825	1427.185719	-106.074209	907.149215	1028.001576	-412.771145	927.128315	1007.245477	-99.020785	959.226258	980.822613	-396.594956	969.426151	949.306915	-120.028795	833.341983	933.709373	-411.310036	840.480817	904.955341	-104.913222	806.434591	1016.441833	-258.552325	1044.910543	735.025977	-408.590559	972.206516	693.976136	-401.944878	1091.438264	645.677466	-394.920469	1025.508551	606.767146	-386.368347	870.621014	686.326933	-99.859963	793.374882	707.778117	-103.375858	846.033733	591.501272	-116.234799	768.041479	611.188130	-119.315458	1091.408267	522.109884	-388.012804	752.050786	486.941156	-124.247728	1106.395360	414.700617	-386.437223	1024.745557	426.997315	-381.344344	1088.557290	316.111644	-371.949043	1010.539513	331.193445	-361.291730	722.518563	378.388013	-139.740300	662.513786	426.838311	-114.836510	662.879118	299.043888	-153.454279	594.829105	348.944705	-132.526061	1043.776655	150.836286	-340.783349	502.119838	191.066459	-166.356994	1215.136923	125.325688	-306.008228	1161.902204	100.812218	-360.986153	981.466162	123.592751	-278.133096	610.688335	60.948845	-214.118701	551.432747	70.731023	-153.417280	453.722407	219.574279	-223.496461	448.695175	191.511556	-258.073486	434.094701	195.604501	-201.612418	995.491927	102.067743	-249.569952	984.751904	94.246126	-302.391545
77	0.380000	833.934004	1411.440400	-408.249231	948.144671	1429.850139	-107.128282	924.266687	1030.224800	-412.497639	944.332807	1009.577908	-99.125606	976.302057	982.858818	-396.367648	986.434600	951.547252	-119.952155	850.409100	935.730875	-411.239345	857.132982	907.558648	-104.724759	823.668888	1018.457064	-258.518771	1060.468673	735.775275	-408.931346	987.440255	695.413064	-401.985750	1106.192290	646.062901	-395.257394	1039.934243	607.711847	-386.494723	885.078850	688.814231	-99.936678	808.090300	711.183199	-103.528427	859.425632	594.282723	-116.250913	781.626689	614.881080	-119.472898	1106.370394	522.116119	-388.026422	764.068717	490.875880	-123.939964	1125.300512	415.042290	-386.017736	1043.051833	424.294316	-381.082005	1111.229224	315.765274	-371.061883	1032.559422	327.998918	-360.449024	733.177632	382.665520	-138.930461	673.585689	431.896088	-114.620981	672.702675	303.823070	-152.224083	605.151284	354.625689	-132.116606	1073.093339	148.421559	-338.709795	511.160134	197.467788	-165.395870	1245.526631	129.963334	-302.774392	1193.717089	102.227749	-357.783322	1011.687587	119.115473	-276.244807	615.280470	61.844159	-212.988688	556.373936	74.100087	-152.273227	464.535970	228.161244	-222.299613	458.188314	200.357264	-257.034753	443.820889	204.871885	-200.481969	1026.509655	98.699016	-247.296087	1016.459374	89.600603	-300.164751
78	0.385000	849.598094	1413.075940	-408.560103	963.768900	1432.250084	-108.133336	941.362287	1032.119763	-412.248985	961.447702	1011.748128	-99.213002	993.356591	984.550094	-396.167510	1003.408996	953.665184	-119.843513	867.426969	937.411644	-411.070691	873.803058	909.959573	-104.435072	840.869706	1020.219459	-258.482689	1075.873530	736.155633	-409.385066	1002.514159	696.511425	-402.033957	1120.773991	646.072765	-395.723594	1054.187970	608.303463	-386.642408	899.834392	691.115243	-99.924695	823.088056	714.293431	-103.611175	873.242124	596.853788	-116.128294	795.633454	618.258521	-119.531750	1121.129299	521.800420	-388.080897	776.650465	494.525636	-123.516437	1143.825169	415.176376	-385.656817	1061.109801	421.515286	-380.742193	1133.377375	315.364550	-370.227476	1054.191657	324.868439	-359.550546	744.337179	386.697098	-138.046438	685.214902	436.761834	-114.362409	682.954289	308.445579	-150.984758	615.967567	360.193323	-131.700576	1101.711894	146.246925	-336.681591	520.551628	203.917481	-164.515952	1274.985774	134.576880	-299.803863	1224.600355	103.759497	-354.773006	1041.272616	115.016640	-274.332219	620.322312	63.052014	-211.684141	561.770424	77.803382	-151.048920	475.751088	236.656811	-221.239970	468.148627	209.091510	-256.105776	453.992662	214.075490	-199.479069	1056.842126	95.702700	-245.017978	1047.455483	85.379241	-297.921009
